<?xml version="1.0" encoding="UTF-8"?>
<svg id="Layer_2" data-name="Layer 2" xmlns="http://www.w3.org/2000/svg" viewBox="0 0 500 500">
  <defs>
    <style>
      .cls-1 {
        fill: #fafafa;
      }

      .cls-2 {
        fill: #51ade5;
      }

      .cls-3 {
        fill: #fdfdfd;
      }

      .cls-4 {
        fill: #fbfbfb;
      }

      .cls-5 {
        fill: #efeff0;
      }

      .cls-6 {
        fill: #f8f8f8;
      }

      .cls-7 {
        fill: #fefefe;
      }
    </style>
  </defs>
  <g id="Artboard_1" data-name="Artboard 1">
    <g id="Ingenious_Technology" data-name="Ingenious Technology">
      <path class="cls-2" d="m172.7,262.16h-3.32v-1.61h9v1.61h-3.33v10.17h-2.38l.03-10.17Z"/>
      <path class="cls-2" d="m203.23,266.95h-5v3.8h5.58l-.3,1.58h-7.63v-11.78h7.58v1.61h-5.23v3.19h5v1.6Z"/>
      <path class="cls-2" d="m230.22,268.96c-.07.62-.4,3.56-4.46,3.56-4.26,0-4.7-3.07-4.7-6.12,0-3.68,1.36-6,4.87-6,3.93,0,4.21,2.67,4.27,3.54h-2.37c.09-1.01-.66-1.91-1.67-2-.09,0-.18,0-.27,0-2,0-2.36,1.93-2.36,4.49,0,2.31.31,4.55,2.27,4.55,1.1,0,2-.9,2-2l2.42-.02Z"/>
      <path class="cls-2" d="m248.01,260.55h2.38v4.76h4.14v-4.76h2.38v11.78h-2.38v-5.42h-4.13v5.42h-2.38v-11.78Z"/>
      <path class="cls-2" d="m275.63,272.33v-11.78h2.76c3.54,7.07,4.14,8.27,4.33,8.82h0c-.12-1.47-.14-3.22-.14-5.14v-3.68h2.16v11.78h-2.65c-3.65-7.5-4.22-8.69-4.41-9.21h0c.11,1.46.12,3.27.12,5.38v3.83h-2.17Z"/>
      <path class="cls-2" d="m312.53,266.34c0,4.21-1.42,6.18-4.88,6.18-3.25,0-4.75-1.92-4.75-6.18s1.75-6,4.86-6c3.29.03,4.77,1.95,4.77,6Zm-7.19,0c0,3,.66,4.67,2.37,4.67s2.38-1.58,2.38-4.66-.64-4.39-2.39-4.39-2.35,1.53-2.35,4.35v.03Z"/>
      <path class="cls-2" d="m330.73,260.55h2.38v10.21h5.33l-.26,1.57h-7.45v-11.78Z"/>
      <path class="cls-2" d="m364.53,266.34c0,4.21-1.43,6.18-4.89,6.18-3.25,0-4.75-1.92-4.75-6.18s1.75-6,4.86-6c3.23.03,4.78,1.95,4.78,6Zm-7.2,0c0,3,.67,4.67,2.37,4.67s2.38-1.58,2.38-4.66-.64-4.39-2.38-4.39-2.42,1.53-2.42,4.35l.05.03Z"/>
      <path class="cls-2" d="m391.53,272.33h-1.8c-.07-.36-.11-.72-.12-1.09-.73.94-1.9,1.43-3.08,1.28-3.24,0-4.3-2.34-4.3-6,0-4.22,1.8-6.12,5-6.12,4,0,4.22,2.65,4.26,3.36h-2.35c.02-.98-.76-1.79-1.75-1.81-.08,0-.17,0-.25.01-1.91,0-2.49,1.86-2.49,4.55s.47,4.5,2.36,4.5c1.66,0,2.11-1,2.11-3v-.63h-2.26v-1.58h4.67v6.53Z"/>
      <path class="cls-2" d="m412.16,272.33v-4.31c0-.12-.03-.25-.1-.35l-3.87-7.15h2.66c.92,1.89,2.11,4.34,2.57,5.55.55-1.34,1.76-3.75,2.61-5.55h2.5l-3.92,7.17c-.06.11-.08.24-.08.36v4.25l-2.37.03Z"/>
      <path id="s" class="cls-3" d="m468.92,210.02c-5.43-3.11-10.33-6-15.31-8.74-4-2.2-7.79-1.32-11.38,1-3.08,2.05-3.4,5.13-3,8.46s2.79,5.19,5.71,6.35c5.36,2.13,10.85,4,16.1,6.34,6.8,3.07,9.68,7.5,9.19,13.16-.58,6.72-4.66,11.31-11.8,13.26-9,2.48-17.78.71-26.52-1.54-1.14-.17-1.92-1.23-1.74-2.37,0-.04.01-.09.02-.13.1-2.12,0-4.25,0-7.26,4.59,3,8.6,5.48,12.37,8.25s8,3.15,12.36,2c3.34-.78,5.81-3.59,6.17-7,.53-3.63-.22-6.76-3.74-8.95-4.95-3.08-10.7-4.12-15.87-6.6-8.31-4-11.33-8.89-9.93-16.09,1.25-6.43,7.31-11.07,15.35-11.62,6.25-.38,12.52.14,18.63,1.53,2.64.57,3.82,1.5,3.45,4.26-.12,1.89-.14,3.79-.06,5.69Z"/>
      <path id="u" class="cls-3" d="m408.64,240.02c-3.75,8.9-9.85,12.09-19.65,10.66-8-1.18-13.23-6.89-13.67-16.37-.51-11-.15-22-.29-33,0-2.06.86-2.42,2.58-2.29,1.3.13,2.6.13,3.9,0,2.6-.33,3.08.88,3.06,3.21-.08,9,0,17.94.07,26.91.02,2.74.56,5.46,1.6,8,2.3,6.22,9.2,9.4,15.41,7.1,1.23-.46,2.38-1.11,3.41-1.94,1-.74,1.7-1.93,3.58-2.28Z"/>
      <path id="u-2" data-name="u" class="cls-7" d="m419.45,224.52c0,7.39-.13,14.79.07,22.17.08,2.83-.67,3.72-3.57,3.65-6.07-.16-6.07,0-6.07-5.85,0-13.88.09-27.76-.07-41.64,0-3,.6-4,3.74-3.84,5.89.24,5.9,0,5.9,5.94v19.57Z"/>
      <path id="o" class="cls-7" d="m350.37,200.65c-5.48-2.3-11.27-2.63-17.06-2.06-9.61,1-17.89,4.65-21.23,14.37-3.63,10.54-3.59,21.12,4.22,30.19,5.17,6,12.39,7.41,19.9,7.89,17.26,1.1,28.59-9.34,28.61-23.14-.17-14.08-3.8-22.8-14.44-27.25Zm-5.1,47.37c-6.09,2.07-12.14,0-16.57-6-5.85-8-9.22-16.9-9.26-26.85,0-6.79,3.45-11.45,9.73-13.81,5.52-2.07,11.74-.3,15.93,4.76,5.74,7.02,9.25,15.59,10.11,24.62-.05,10.41-3.1,15-9.94,17.28Z"/>
      <path id="i" class="cls-6" d="m288.94,182.67c.11-2.73,1.93-4.66,5.24-5,2.82-.26,5.4,2.5,5.41,5.46,0,3.36-2.14,4.93-5,5.41s-5.53-2.16-5.65-5.87Z"/>
      <path id="i-2" data-name="i" class="cls-1" d="m298.87,205.31c.01-1.55.14-3.1.38-4.63-3-1.63-9.62,2.31-9.63,5.79,0,13.18.16,26.37-.12,39.55-.09,3.91,1.33,4.38,4.68,4.37s5.09-.4,5-4.62c-.3-10.84,0-21.71.11-32.56-.33-2.62-.47-5.26-.42-7.9Z"/>
      <path id="n" class="cls-5" d="m242.95,209.44l.12.05h0l-.12-.05Zm.1.07l-.1-.07v.21l.1-.14Zm-.83.3v-10.6c-2.11,1-3.46,2-5,2.32-3.83.82-4.7,3-4.62,6.77.27,12.61.27,25.22,0,37.83-.08,3.67,1.21,4.35,4.45,4.22s5.2.15,5.19-4.39c0-12.1-1-24.23.63-36.31-.1.13-.22.24-.36.33.02.04-.29-.11-.29-.17h0Zm35.93,26c.19-.23-.28-11.82-.1-12.21-.15-2.61.34-5.25-.28-7.84-1.12-10.23-5.33-15.64-13.49-17-8.74-1.46-17.32.55-21.21,10.71,1.93.73,2.6-1.24,3.67-2,6.29-4.54,17.19-4.62,20.16,5.24.12.41.23.84.33,1.29.22.61.36,1.25.4,1.9h0l1.48,33.94h8.55c1.23-8.41.43-5.57.49-14.01v-.02Z"/>
      <path id="e" class="cls-3" d="m182.27,220.32c12,.12,24.06-.23,36.07.19,4.81.17,4.3-1.94,3.47-4.93-3.2-11.56-12.49-17.56-26.69-17.14-9.24.27-17.67,2.72-22.16,11.61-5,9.85-4.94,20.18.32,29.9,4.92,9.1,14,11.1,23.37,11.1s17.08-2.47,22.53-10.54c1.2-1.77,1.33-3,.13-4.62-1.54-2-3.06-4-5-6.64v2.78c.53,8-2.09,12.69-8.47,15.28-7,2.86-12.53,1.52-17.63-4.48-4.69-5.51-6.94-12.18-9-19-.9-3.13.32-3.53,3.06-3.51Zm-4-4.24c-.25-6.53,3-11.85,8.61-14.18,6.11-2.52,12.11-1.37,16.56,3.65,3.23,3.64,6.12,7.62,7.15,13h-30.41c-2.01.06-1.83-1.13-1.88-2.47h-.03Z"/>
      <path id="g" class="cls-7" d="m163.88,202.02c2.51-.34,1.74-2,1.64-3.13s1.21-3.32-1.45-3.78c-3.86-.65-7.52,1.95-8.17,5.81-.05.28-.08.56-.09.85-.07,1.19.4,2.49-.46,3.65-6.83-5.82-13.42-7.79-22.49-6.81s-15.62,6.12-17.4,14.32-.15,16.66,9.17,22.17c-.8.5-1.17.7-1.51.94-7.54,5.54-10.2,14.58-7.3,24.82,2,7,8.07,11.28,17.44,11.6,9.69.32,19.41-.09,29.1.26,4.39.16,3.11-2.57,3.22-4.75.11-2.41.68-4.68-3.44-4.56-9,.27-18,.33-26.9-.29-12.57-.87-18.33-13.73-11.33-24.14,1.62-2.4,3-3.41,5.84-2.19s5.95.92,9,.83c15.3-.44,23.77-11.94,19.5-26.5-2.05-6.98-1.41-8.18,5.63-9.1Zm-20.11,32.8c-4.07,1.67-7.62-.06-10.53-3.07-5.57-5.75-8.12-12.84-8.46-20.66-.18-4.07,1.26-7.92,5.3-9.65,4.24-1.81,7.89.07,10.86,3.12,5.49,5.63,7.7,12.67,8.33,19.32-.1,5.25-1.26,9.14-5.5,10.89v.05Z"/>
      <path id="n-2" data-name="n" class="cls-3" d="m69.7,208.9c2.26-7.31,9.48-11.24,18.69-10.48,7.63.62,12.52,4.73,14.61,12.44,1.73,6.41,1,12.93,1.11,19.42.1,5.64-.11,11.3.06,16.95.15,4.88-3.41,2.63-5.49,3s-4.09.48-4.06-3.07c.07-9.55.61-19.11-.33-28.65-.58-5.83-2-11.38-8.41-13.34-5.91-1.8-11.06.07-15.32,4.47-.29.31-.57.61-.92.06-.15-.13-.21-.34-.15-.53.04-.15.15-.27.21-.27Zm-1.17-2.13c-.1-2.39,0-4.78,0-7.78-2.27,1.14-3.83,2.31-5.58,2.72-3.77.9-4.28,3.29-4.23,6.7.17,12.73.22,25.47,0,38.2-.08,3.81,1.78,4,4.47,3.66,2.37-.26,5.61,1.42,5.46-3.53-.3-10.41,0-20.84-.12-31.26-.08-2,.33-3.99,1.2-5.8.08-.25.1-.52.06-.78-1.89.12-1.26-1.32-1.26-2.13Z"/>
      <path id="I" class="cls-4" d="m45.2,213.51c0,10.86-.16,21.72.1,32.57.08,3.61-1.12,4.36-4.42,4.26-6.5-.2-6.51,0-6.51-6.38,0-21,.09-42-.08-63,0-3.49.64-5.18,4.41-4.53,1.15.17,2.32.17,3.47,0,2.56-.34,3.11.81,3.08,3.18-.11,11.31-.05,22.6-.05,33.9Z"/>
    </g>
  </g>
</svg>