<?xml version="1.0" encoding="utf-8"?>
<!-- Generator: Adobe Illustrator 27.8.1, SVG Export Plug-In . SVG Version: 6.00 Build 0)  -->
<svg version="1.1" id="Layer_1" xmlns="http://www.w3.org/2000/svg" xmlns:xlink="http://www.w3.org/1999/xlink" x="0px" y="0px"
	 viewBox="0 0 1142.4 845.6" style="enable-background:new 0 0 1142.4 845.6;" xml:space="preserve">
<style type="text/css">
	.st0{opacity:0.1;fill:#BED0EF;}
	.st1{opacity:0.2;}
	.st2{fill:none;stroke:#3E4B5E;stroke-width:2;stroke-miterlimit:10;stroke-dasharray:12.0662,12.0662;}
	.st3{fill:#BED0EF;}
	.st4{opacity:4.000000e-02;}
	.st5{fill:#3E4B5E;}
	.st6{fill:#55C6FF;}
	.st7{fill:#C61818;}
	.st8{fill:#FFFFFF;}
	.st9{fill:#81C418;}
	.st10{fill:#FFE000;}
	.st11{fill:#FF9E5F;}
	.st12{fill:#9D78EB;}
	.st13{opacity:0.2;fill:#212121;}
	.st14{fill:#BA7338;}
	.st15{fill:#8E511A;}
	.st16{fill:url(#SVGID_1_);}
	.st17{fill:url(#SVGID_00000084528440151860891110000015689950565960270266_);}
	.st18{fill:url(#SVGID_00000151501578423094055270000007204954198145068462_);}
	.st19{fill:#FFE1A6;}
	.st20{fill:#E1E9F4;}
	.st21{fill:#B6C7DD;}
	.st22{fill:#B5662A;}
	.st23{fill:url(#SVGID_00000083081164668553547850000001737237296298573733_);}
	.st24{opacity:5.000000e-02;}
</style>
<g>
	<g>
		<path class="st0" d="M207.2,339.2c101.8-12.4,244.2-19.1,225.3-88.5c-29.5-108.4-26-218.8,120.4-206.5
			C699.3,56.7,852.1,281,890.3,498.6c34.6,197.3-339.5,259.3-540.9,148C147.9,535.1,105.4,351.6,207.2,339.2z"/>
		<g class="st1">
			<path class="st2" d="M272.1,360.9c87.6-10.7,210.3-16.4,194-76.2C440.7,191.4,443.7,96.3,569.7,107
				c126,10.7,257.5,203.8,290.4,391.1C890,667.9,567.9,721.3,394.4,625.4C221,529.5,184.5,371.5,272.1,360.9z"/>
		</g>
	</g>
	<g>
		<path class="st3" d="M187.4,635.7l10.7-4.1c1.7,0.7,3.3,1.3,5,1.9l5.1,10.3c1.6,3.7,5.3,4.4,8.2,1.6l8.7-7.6
			c1.7,0.1,3.4,0.1,5.1,0.1l8.4,8c2.8,2.9,6.5,2.3,8.3-1.3l5.7-10.3c1.5-0.5,3.1-1,4.6-1.6l10.8,4.7c3.6,1.8,6.9,0,7.3-4l1.9-11.9
			c1.2-0.9,2.3-1.8,3.5-2.8l12.1,0.7c4,0.4,6.5-2.4,5.5-6.3L296,601c0.7-1.1,1.4-2.3,2.1-3.5l11.8-3.5c3.9-1,5.3-4.5,3-7.8
			l-6.5-10.8c0.3-1.2,0.5-2.4,0.7-3.6l10.1-7.5c3.4-2.2,3.4-6,0.2-8.4l-10-8.1c-0.2-1.1-0.3-2.2-0.5-3.3l7.1-10.7
			c2.4-3.2,1.2-6.8-2.7-7.9l-12.2-4.2c-0.5-0.9-1-1.9-1.5-2.8l3-12.6c1.1-3.9-1.2-6.8-5.3-6.5l-13,0.2c-0.4-0.3-0.8-0.7-1.1-1
			c-0.4-0.3-0.8-0.7-1.2-1l-1.5-12.9c-0.3-4-3.5-6-7.2-4.3l-12.1,4.7c-1-0.4-2-0.8-3-1.2l-5.8-11.6c-1.6-3.7-5.3-4.4-8.2-1.6
			l-9.7,8.4c-1.1-0.1-2.2-0.1-3.3-0.1l-9.3-8.8c-2.8-2.9-6.5-2.3-8.3,1.3l-6.1,11.1c-1.2,0.4-2.3,0.7-3.5,1.2l-11.5-5
			c-3.6-1.8-6.9,0-7.3,4l-1.9,12.2c-1.1,0.8-2.1,1.7-3.2,2.5l-12.3-0.8c-4-0.4-6.5,2.4-5.5,6.3l2.3,11.9c-0.8,1.2-1.6,2.5-2.3,3.8
			l-11.5,3.4c-3.9,0.9-5.3,4.5-3,7.8l6.1,10.1c-0.4,1.6-0.7,3.2-1,4.8l-9.5,7c-3.4,2.2-3.4,6-0.2,8.4l9,7.3c0.2,1.7,0.5,3.4,0.8,5.1
			l-6.4,9.7c-2.4,3.2-1.2,6.8,2.7,7.9l10.8,3.7c0.8,1.6,1.7,3.2,2.6,4.7l-2.7,11.1c-1.1,3.9,1.2,6.8,5.2,6.5l11.4-0.2
			c0.7,0.6,1.3,1.2,2,1.8c0.7,0.6,1.4,1.2,2.1,1.7l1.3,11.4C180.5,635.4,183.7,637.3,187.4,635.7z M191,602.1
			c-24-21-26.4-57.5-5.4-81.6c21-24,57.5-26.4,81.6-5.4c24,21,26.4,57.5,5.4,81.6C251.5,620.7,215,623.2,191,602.1z"/>
		<g>
			<path class="st3" d="M254.8,538.7c-0.1,0.8-0.1,1.7-0.4,2.5c-0.7,1.6-2.4,2.4-4.2,2c-1.7-0.5-3.4-1-5.1-1.4
				c-6.4-1.4-12.8-1.1-19.1,1c-8.2,2.8-14.8,7.8-19.3,15.3c-1.3,2.1-2.2,4.3-3.2,6.5c-0.8,1.8-2.1,2.7-3.8,2.6
				c-2.3-0.1-4-2.4-3.3-4.5c0.8-2.2,1.7-4.4,2.8-6.4c3-5.7,7.2-10.4,12.4-14.2c10-7.1,21-9.9,33.1-7.9c2.5,0.4,4.9,1.2,7.3,1.9
				c0.8,0.2,1.4,0.9,2.1,1.4C254.4,537.9,254.6,538.3,254.8,538.7z"/>
			<path class="st3" d="M224.7,548.4c7.3-3.3,15.3-3.7,23.4-0.9c1.4,0.5,2.3,1.4,2.6,2.9c0.3,1.4-0.2,2.6-1.3,3.5
				c-0.9,0.8-2,1-3.2,0.7c-1.3-0.3-2.5-0.7-3.8-1c-4.3-1-8.6-0.7-12.8,0.8c-6.6,2.4-11.3,6.7-14.2,13.2c-0.5,1-0.7,2.1-1.6,2.9
				c-1.2,1-2.9,1.2-4.3,0.3c-1.3-0.8-2.1-2.4-1.6-3.9c0.6-2.2,1.6-4.2,2.8-6.1C213.9,555.4,218.5,551.4,224.7,548.4z"/>
			<path class="st3" d="M229.1,559.7c5-2.3,9.9-2.5,14.9-0.8c1.9,0.7,2.9,2.7,2.3,4.6c-0.6,1.9-2.5,2.9-4.5,2.4
				c-1.8-0.5-3.7-1-5.6-0.7c-4.6,0.6-7.9,3-9.9,7.2c-0.3,0.7-0.6,1.4-1.1,1.9c-1.2,1.3-3.1,1.5-4.6,0.6c-1.5-0.9-2.1-2.7-1.5-4.4
				c1.7-4.5,4.7-8,9-10.3C228.6,560,229,559.8,229.1,559.7z"/>
			<path class="st3" d="M243.2,574.5c1.5,3.1,0.1,6.8-3,8.3c-3.1,1.5-6.8,0.1-8.3-3s-0.1-6.9,3-8.4
				C238.1,570,241.7,571.4,243.2,574.5z"/>
		</g>
	</g>
	<g class="st4">
		<g>
			<path class="st5" d="M331.5,465.4c-1.1-3.7,0.5-7.7,3.7-11.5l0,0c7-8.4,22.3-17.1,41.1-23.1l0,0c23.9-7.4,45.5-8.2,53.9-1.4l0,0
				c1.3,1.1,2.3,2.4,2.8,4l0,0c1.1,3.7-0.5,7.6-3.7,11.5l0,0c-7,8.4-22.3,17.1-41.1,23.1l0,0c-23.9,7.4-45.5,8.2-53.8,1.4l0,0
				c0,0,0,0,0,0l0,0C332.9,468.3,332,467,331.5,465.4L331.5,465.4z M377.1,433c-18.5,5.8-33.6,14.6-40,22.4l0,0
				c-3,3.6-4.1,6.8-3.3,9.3l0,0c0.3,1.1,1,2,2,2.9l0,0c6.6,5.7,28.2,5.6,51.6-1.9l0,0c18.6-5.9,33.6-14.6,40.1-22.4l0,0
				c3-3.6,4.1-6.8,3.3-9.3l0,0c-0.3-1.1-1-2-2-2.9l0,0c0,0-0.1-0.1-0.1-0.1l0,0C421.9,425.4,400.4,425.6,377.1,433L377.1,433z"/>
			<path class="st5" d="M368.2,499.7c-8.1-7.1-9.9-29-5.1-54.1l0,0c3.6-18.3,10-33.6,17-42l0,0c3.9-4.6,8.1-7.3,12.4-6.5l0,0
				c1.4,0.3,2.7,0.9,3.8,1.9l0,0c8.1,7.1,9.9,29,5.1,54.1l0,0l-1.2-0.2l-1.2-0.2c4.9-24.6,2.4-46.5-4.3-51.9l0,0
				c-0.9-0.7-1.8-1.2-2.7-1.4l0,0c-2.8-0.6-6.4,1.3-10.1,5.7l0,0c-6.6,7.8-13,23-16.5,40.9l0,0c-4.9,24.6-2.4,46.5,4.3,51.8l0,0
				c0.9,0.7,1.8,1.2,2.7,1.4l0,0c2.8,0.6,6.4-1.3,10.1-5.7l0,0c6.6-7.8,13-22.9,16.5-40.9l0,0l1.2,0.2l1.2,0.2
				c-3.6,18.3-10,33.6-17,42l0,0c-3.9,4.6-8.1,7.3-12.4,6.5l0,0C370.6,501.3,369.4,500.7,368.2,499.7L368.2,499.7
				C368.2,499.8,368.2,499.8,368.2,499.7L368.2,499.7z"/>
			<path class="st5" d="M344.7,436.3c-5.1-8.7-7-16.3-3.2-21.1l0,0c4-4.6,11.9-4,21.3-0.5l0,0c9.5,3.6,20.9,10.4,32,19.7l0,0
				l-0.8,0.9l-0.8,0.9c-10.9-9.2-22.1-15.9-31.3-19.3l0,0c-9.2-3.5-16.2-3.4-18.7-0.2l0,0c-2.7,3-1.6,9.9,3.5,18.4l0,0
				c5,8.4,13.6,18.3,24.5,27.5l0,0c10.9,9.2,22.1,15.9,31.3,19.3l0,0c9.2,3.5,16.2,3.4,18.7,0.2l0,0c2.7-3,1.6-9.9-3.5-18.4l0,0
				c-5-8.4-13.6-18.3-24.5-27.5l0,0l0.8-0.9l0.8-0.9c11.1,9.3,19.8,19.3,25,28.1l0,0c5.1,8.7,7,16.3,3.2,21.1l0,0
				c-4,4.6-11.9,4-21.3,0.5l0,0c-9.5-3.6-20.9-10.4-32-19.7l0,0C358.6,455,349.9,445,344.7,436.3L344.7,436.3z"/>
		</g>
		<path class="st5" d="M376.7,444.9c2.2-2.6,6.1-3,8.8-0.8c2.6,2.2,3,6.1,0.8,8.8c-2.2,2.6-6.1,3-8.8,0.8
			C374.8,451.5,374.4,447.6,376.7,444.9z"/>
	</g>
	<g>
		<path class="st3" d="M133.1,392.9l-0.1-4.4l0,0l0,0l0,0l-44.3,3l0.1,4.6v0l0.7,24.4c-1.2-1.1-3.1-1.4-5.1-0.7
			c-2.9,1-4.8,3.7-4.3,6.1c0.5,2.4,3.2,3.4,6.1,2.4c2.8-1,4.7-3.6,4.3-5.9L89.8,396l20.2-1.4l0.5,19.4c-1.2-1.1-3.1-1.4-5.1-0.7
			c-2.9,1-4.8,3.7-4.3,6.1c0.5,2.4,3.3,3.4,6.1,2.4c1.2-0.4,2.3-1.2,3.1-2.1c0.9-1.1,1.4-2.5,1.2-3.7l-0.6-21.5l21.1-1.5l0.4,14.6
			c-1.2-1-3.1-1.3-5.1-0.6c-2.9,1-4.8,3.6-4.3,5.9c0.5,2.3,3.3,3.3,6.1,2.3c1.3-0.4,2.3-1.2,3.1-2.1c0.9-1.1,1.4-2.4,1.2-3.6
			L133.1,392.9L133.1,392.9z"/>
		<path class="st3" d="M189.5,416.9c-0.1-1.4,0.5-2.2,0.5-2.2l-1.1-0.9l-18.8,21.1c-0.4-2-2.2-4.1-4.9-5.5c-3.8-2-7.8-1.7-9.1,0.7
			c-1.2,2.3,0.8,5.9,4.6,7.8c3.7,1.9,7.6,1.7,9-0.5l16-17.9c0,0,0.4,0.5,1.1,2.6c2.3,6.7,1.8,11-7.1,18.5c-0.2,0.2-0.1,0.4,0.2,0.2
			C196.4,430.6,189.6,418.3,189.5,416.9z"/>
		<path class="st3" d="M240.1,337.5l-19-33.6l-29.4,31.8l17.7,31.3c-2.5-0.3-5.9,1-8.6,3.6c-4,3.7-5.3,8.8-3,11.2
			c2.3,2.4,7.4,1.4,11.4-2.3c3.8-3.6,5.2-8.5,3.2-11l-15.9-28.1l27-28.9l13.9,24.5c-2.6-0.3-5.9,1-8.6,3.6c-4,3.7-5.3,8.8-3,11.2
			c2.3,2.4,7.4,1.4,11.4-2.3C240.7,344.9,242.1,340.1,240.1,337.5z"/>
	</g>
	<g>
		<g>
			<g>
				<g>
					<g>
						<path class="st3" d="M556.3,214.3c1.7,0,12.6-27.9,29.1-95.7c5.5-22.5,10.6-42.5,16-63.7l-9.9-2.4c-4.9,18-10,41-15.5,63.4
							C559.5,183.7,554,214.3,556.3,214.3z"/>
					</g>
					<g>
						<path class="st6" d="M591.9,53.8c0.4-2.2,5.1-16.6,6.8-17.7c3.9,0.6,4.6,1.2,4.6,1.2s0.6,2-2.5,18.1
							C600.4,57.7,591.9,53.8,591.9,53.8z"/>
						<path class="st3" d="M599.5,57c-2.9,0-7.9-2.4-8-2.5l0,0l0.4-0.8l0.8,0.2l-0.8-0.2l-0.4,0.8l-0.6-0.3l0.1-0.7
							c0.2-1.3,1.5-5.4,2.9-9.4l0,0c1.5-4.1,2.8-7.8,4.2-8.8l0,0l0.3-0.2l0.3,0c4,0.6,4.8,1.3,5.1,1.5l0,0l0.2,0.2l0.1,0.2
							c0,0.1,0.1,0.4,0.1,1l0,0c0,1.6-0.3,6-2.5,17.5l0,0c-0.2,1.1-1.2,1.4-2,1.4l0,0C599.6,57,599.5,57,599.5,57L599.5,57z
							 M600,55.2c2.2-11.4,2.5-15.7,2.5-17.1l0,0c0-0.1,0-0.2,0-0.3l0,0c-0.1,0-0.2-0.1-0.3-0.1l0,0c-0.6-0.2-1.5-0.5-3.2-0.7l0,0
							c-0.6,0.8-2.2,4.4-3.3,7.8l0,0c-1.2,3.4-2.3,6.9-2.7,8.5l0,0c0.5,0.2,1.3,0.5,2.2,0.9l0,0c1.6,0.6,3.4,1.2,4.5,1.2l0,0
							C599.7,55.3,599.9,55.3,600,55.2L600,55.2z"/>
					</g>
					<path class="st7" d="M597.9,36.1c0.3-2.9-2.4-8.9,3.4-14.5c5.8-5.6,3.7-8.3,3.8-10.2c0.1-1.8,8.2,6.1,4.4,17.5
						c-1.4,4.1-5.7,8.5-5.8,8.7C603.4,37.9,597.9,36.1,597.9,36.1z"/>
				</g>
				<g>
					<g>
						<path class="st3" d="M538.7,181.8c-1.8-1.6,12.9-19.9,47.5-59.1c11.5-13,21.6-24.7,32.3-37.2l5.8,5.1
							c-9,10.7-20.9,23.7-32.4,36.7C557.3,166.6,540.5,183.5,538.7,181.8z"/>
					</g>
					<g>
						<path class="st3" d="M623.3,91c1.2-1.2,8.1-10.2,8-11.7c-2-2.2-2.7-2.3-2.7-2.3s-1.5,0.5-10.1,9.3
							C617.3,87.4,623.3,91,623.3,91z"/>
						<path class="st6" d="M623,91.5c0-0.2-5-2.6-5.4-5l0,0c0-0.3,0.1-0.6,0.3-0.8l0,0c8.7-8.8,10.1-9.3,10.4-9.4l0,0l0.2-0.1l0.2,0
							c0.2,0.1,1,0.3,3.1,2.5l0,0l0.5,0.6l-0.4,0.3c-0.7,2.7-6.8,10.4-8.1,11.8l0,0l-0.4,0.4L623,91.5L623,91.5z M623.3,91l0.3-0.6
							L623.3,91L623.3,91z M621.2,88.8c0.8,0.6,1.6,1.1,2,1.4l0,0c1.7-1.9,7-9.2,7.4-10.7l0,0c-1.1-1.1-1.7-1.6-2-1.8l0,0
							c0,0,0,0,0,0l0,0c-0.2,0.2-0.7,0.5-1.4,1.1l0,0c-1.4,1.2-3.9,3.5-8.2,7.9l0,0C619,86.9,620,88,621.2,88.8L621.2,88.8z"/>
					</g>
					<path class="st7" d="M631.6,79.7c1.6-1.4,6.5-2.3,7.5-8.3c1-6,3.6-5.8,4.6-6.7c1.1-0.8-7.3-2.4-12.7,4.8
						c-1.9,2.6-2.8,7.1-2.9,7.3C628.2,77.1,631.6,79.7,631.6,79.7z"/>
				</g>
			</g>
			<g>
				<path class="st8" d="M583.5,104.5c-6.7-8.4-10.1-14.3-30.9-13.2c-27.6,1.5-76.6,37.3-57.5,68.8c15.3,25.1,74.4,25.5,109.7,8.7
					c35.4-16.8,40.4-42.6,22.5-58.9C614.9,98.6,583.5,104.5,583.5,104.5z"/>
				<path class="st7" d="M626.1,129.8c0,5.4-5.9,9.8-13.1,9.8c-7.2,0-13.1-4.4-13.1-9.8c0-5.4,5.9-9.8,13.1-9.8
					C620.2,119.9,626.1,124.3,626.1,129.8z"/>
				<path class="st9" d="M600.3,150.5c0,5.4-5.9,9.8-13.1,9.8c-7.2,0-13.1-4.4-13.1-9.8s5.9-9.8,13.1-9.8
					C594.4,140.7,600.3,145.1,600.3,150.5z"/>
				<path class="st6" d="M567.1,160.1c0,5.4-5.9,9.8-13.1,9.8c-7.2,0-13.1-4.4-13.1-9.8c0-5.4,5.9-9.8,13.1-9.8
					C561.3,150.2,567.1,154.6,567.1,160.1z"/>
				<path class="st10" d="M532.9,155.6c0,5.4-5.9,9.8-13.1,9.8c-7.2,0-13.1-4.4-13.1-9.8c0-5.4,5.9-9.8,13.1-9.8
					C527,145.8,532.9,150.1,532.9,155.6z"/>
				<path class="st11" d="M526.7,130.4c0,4.8-5.2,8.8-11.7,8.8c-6.5,0-11.7-3.9-11.7-8.8c0-4.8,5.2-8.8,11.7-8.8
					C521.5,121.6,526.7,125.5,526.7,130.4z"/>
				<path class="st12" d="M543.6,111.9c0,4.3-4.6,7.7-10.3,7.7c-5.7,0-10.3-3.5-10.3-7.7c0-4.3,4.6-7.7,10.3-7.7
					C539,104.2,543.6,107.7,543.6,111.9z"/>
				<path d="M567.7,104.4c0,3.9-4.2,7.1-9.4,7.1c-5.2,0-9.4-3.2-9.4-7.1c0-3.9,4.2-7.1,9.4-7.1C563.5,97.3,567.7,100.5,567.7,104.4z
					"/>
			</g>
		</g>
	</g>
	<g>
		<g>
			<g>
				<path class="st3" d="M972.3,462.8c0.2-0.1,0.2-0.3,0.1-0.5l-17.6-26.9l5-6.9c0.1-0.2,0.1-0.4-0.1-0.5l-18.6-13.5l-28.2-43.1
					c-0.1-0.2-0.3-0.2-0.5-0.1l-16.3,10.6l-24.3-17.6c-0.2-0.1-0.4-0.1-0.5,0.1l-46.9,63.9l-21.7,14c-0.2,0.1-0.2,0.3-0.1,0.5l5.3,8
					L794,469.7c-0.1,0.1-0.1,0.4,0.1,0.5l50.5,36.6l18.1,27.6c0.1,0.2,0.3,0.2,0.5,0.1l10.3-6.8l9.3,6.7c0.2,0.1,0.4,0.1,0.5-0.1
					l18-24.9L972.3,462.8z M909.8,383.9l11.4,16l-17.5-12.8L909.8,383.9z M818,452l55-76l75.1,54.5l-55,75.9L818,452z M914.9,490.6
					l34.4-47.5l11.5,17.5L914.9,490.6z"/>
			</g>
			<g>
				<polygon class="st6" points="823.1,451.1 873.5,378.6 945.2,430.4 893,501.9 				"/>
			</g>
		</g>
		<g>
			<path class="st8" d="M899.6,473.3c-1-0.2-2-0.3-2.8-0.7c-1.8-1-2.6-3.2-1.8-5.1c0.7-1.9,1.7-3.8,2.3-5.8
				c2.5-7.4,2.9-14.9,1.2-22.5c-2.2-10-7.4-18.3-15.5-24.6c-2.3-1.7-4.8-3.1-7.3-4.6c-2-1.2-2.9-2.8-2.6-4.8
				c0.4-2.7,3.3-4.4,5.7-3.3c2.5,1.2,4.9,2.6,7.2,4.1c6.3,4.2,11.3,9.7,15.1,16.3c7.1,12.6,8.9,25.9,5.1,39.8
				c-0.8,2.9-2,5.6-3.2,8.4c-0.4,0.9-1.2,1.5-1.9,2.3C900.6,473,900.1,473.2,899.6,473.3z"/>
			<path class="st8" d="M892,436.8c2.9,9,2.4,18.4-1.9,27.5c-0.7,1.6-1.9,2.5-3.7,2.7c-1.7,0.1-3-0.5-3.9-1.9
				c-0.8-1.2-1-2.5-0.5-3.8c0.5-1.4,1.2-2.9,1.7-4.3c1.7-5,1.9-10.1,0.6-15.1c-2-8-6.5-14.1-13.7-18.3c-1.1-0.7-2.4-1.1-3.2-2.3
				c-1-1.5-1-3.6,0.1-5.1c1.1-1.4,3.1-2.1,4.8-1.4c2.5,1,4.7,2.4,6.8,4.1C885.2,423.3,889.3,429.2,892,436.8z"/>
			<path class="st8" d="M878.2,440.6c2,6.1,1.7,11.9-1,17.6c-1,2.2-3.5,3.1-5.7,2.2c-2.1-0.9-3.1-3.3-2.2-5.5
				c0.8-2.1,1.6-4.2,1.5-6.5c-0.1-5.5-2.5-9.6-7.2-12.5c-0.7-0.4-1.5-0.9-2.1-1.5c-1.4-1.5-1.3-3.8-0.1-5.4c1.3-1.6,3.5-2.1,5.4-1.2
				c5.1,2.6,8.8,6.5,11,11.8C878,440,878.1,440.4,878.2,440.6z"/>
			<path class="st8" d="M859.1,455.3c-3.9,1.3-8-0.7-9.4-4.6c-1.3-3.9,0.7-8,4.6-9.4s8.2,0.7,9.4,4.6
				C865,449.8,862.9,453.9,859.1,455.3z"/>
		</g>
	</g>
	<g>
		<ellipse class="st13" cx="597.7" cy="816.9" rx="184.9" ry="15.3"/>
		<g>
			<g>
				<g>
					<polygon class="st14" points="566.3,810.4 584.5,810.4 585.7,752.2 587.2,673.9 588,634.7 576.5,636.3 574.2,675.8 
						569.4,757.3 					"/>
					<polygon class="st15" points="576.5,636.3 566.3,810.4 560.9,810.4 573.2,637.8 					"/>
				</g>
				
					<linearGradient id="SVGID_1_" gradientUnits="userSpaceOnUse" x1="1021.1721" y1="295.4476" x2="1017.8893" y2="376.9664" gradientTransform="matrix(-1 0 0 1 1584.3993 0)">
					<stop  offset="0" style="stop-color:#FFC14F"/>
					<stop  offset="1" style="stop-color:#C45529"/>
				</linearGradient>
				<polygon class="st16" points="637.5,363.7 628,369.7 494.7,370.1 494.7,349.3 502.8,344.8 				"/>
				
					<linearGradient id="SVGID_00000138558699903248833260000010824131188251584398_" gradientUnits="userSpaceOnUse" x1="1010.6436" y1="338.2269" x2="1047.4109" y2="502.1219" gradientTransform="matrix(-1 0 0 1 1584.3993 0)">
					<stop  offset="0" style="stop-color:#FFC14F"/>
					<stop  offset="1" style="stop-color:#C45529"/>
				</linearGradient>
				<polygon style="fill:url(#SVGID_00000138558699903248833260000010824131188251584398_);" points="502.8,344.8 502.8,361.7 
					608.6,363.2 626.6,363.5 637.5,363.7 639.5,352.3 625.6,351.5 606,350.5 				"/>
				
					<linearGradient id="SVGID_00000172422518946791565900000004144213741557533881_" gradientUnits="userSpaceOnUse" x1="994.7857" y1="358.5594" x2="942.0822" y2="355.4362" gradientTransform="matrix(-1 0 0 1 1584.3993 0)">
					<stop  offset="0" style="stop-color:#FFC14F"/>
					<stop  offset="1" style="stop-color:#C45529"/>
				</linearGradient>
				<path style="fill:url(#SVGID_00000172422518946791565900000004144213741557533881_);" d="M606,350.5c0.8,3.9,1.7,8.6,2.6,12.8
					l17.9,0.3c0-4-0.4-8-0.9-12L606,350.5z"/>
				<path class="st19" d="M637.5,363.7l2.4-11.4l0.1-0.4l-0.4,0l-8.5-0.7l-8.5-0.5l-17.1-0.9l-34.2-1.9l-34.2-1.9
					c-11.4-0.6-22.8-1.4-34.2-1.5l-0.1,0l-0.1,0l-8,4.7l8.3-4.2l-0.2,0c11.4,1.1,22.8,1.5,34.1,2.2l34.2,1.9l34.2,1.9l17.1,0.9
					l8.5,0.5l8.6,0.2l-0.3-0.4L637.5,363.7z"/>
				<g>
					<polygon class="st14" points="557.5,225.4 559.7,285.9 560.2,300.6 571.9,625.9 596.1,626.5 576.9,300.1 576.1,285.9 
						572.5,225.4 					"/>
					<polygon class="st15" points="557.5,225.4 571.9,625.9 565.3,625.9 553.1,228.6 					"/>
					<polygon class="st15" points="603.6,284.7 592.4,287.9 536.2,288.8 536.2,275.4 540.1,272.5 					"/>
					<polygon class="st14" points="604.6,277.3 540.1,272.5 540.1,283.4 603.6,284.7 					"/>
				</g>
				<g>
					<polygon class="st14" points="614.6,302.4 662.8,645.4 666.7,673.2 687.8,822.8 712,823.4 688.2,673.2 683.8,645.4 
						629.6,302.4 					"/>
					<polygon class="st15" points="614.6,302.4 687.8,822.8 681.3,822.8 610.2,305.5 					"/>
				</g>
				<g>
					<polygon class="st14" points="490.5,822.8 514.7,823.4 516.9,675.5 517.3,644.8 522.2,302.4 507.2,302.4 496.2,644.8 
						495.2,675.5 					"/>
					<polygon class="st15" points="507.2,302.4 490.5,822.8 484,822.8 502.7,305.5 					"/>
				</g>
			</g>
			<g>
				<polygon class="st20" points="674.1,339.6 464,329.1 477.8,617 703.3,620.3 				"/>
				<polygon class="st21" points="464,329.1 454.3,337.2 464,617 477.8,617 				"/>
			</g>
			<g>
				<polygon class="st15" points="447.2,614 436.2,615.5 435.3,640.4 427.4,640.9 428.9,653.2 441.9,653.2 452.9,643.9 				"/>
				<polygon class="st14" points="447.2,614 449.5,643.2 635.5,641.7 684.9,641.3 738.8,640.9 736.5,617.5 687.7,616.9 636.8,616.3 
									"/>
				<polygon class="st22" points="441.9,642.1 441.9,653.2 651.7,651.2 710.6,650.7 753.4,650.3 753.4,639.7 712,640 653.1,640.5 
									"/>
			</g>
		</g>
	</g>
	<g>
		<g>
			<path class="st3" d="M810.8,160.6c-3,6.8-7.7,14.2-10.9,20.9c-1.4-0.3-2.2-0.4-3.5-0.9c0.7-1,0.7-2.3,0.7-3.5
				c0.2-6.7,0.7-13.4,1.5-20c2.3,0.2,4.7,0.7,6.9,1.4c-0.9,3.7-1.4,9-2.1,10.3c0.3-0.6,0.6-1.2,0.8-1.9c1-2.6,1.9-5.3,2.9-7.9
				C808.4,159.4,809.6,160,810.8,160.6z"/>
			<path class="st6" d="M766.3,290.6c-3.9-1.1,11.9-52.9,23.3-89.7c3.3-10.7,6.3-20.1,8.2-26.7l4.5,1.3c-1.4,4.9-4.2,14.8-7.6,26.9
				C784.8,237.8,769.2,291.5,766.3,290.6z"/>
			<path class="st5" d="M794.7,202.4l-5.2-1.5c3.3-10.7,6.6-23.5,7.6-26.9l5.8,1.7C802.3,178.2,798.2,190.3,794.7,202.4z"/>
		</g>
		<g>
			<path class="st3" d="M792.8,163.7c-0.1,1.1-0.2,2.2-0.4,3.3c-0.5,3.2-1.5,6.4-2.8,9.3c-0.5,1.1-3,7.1-4.3,6.9
				c-2.2-0.3-3.6-0.5-5.7-1c0.7-0.9,0.4-2.2,0.2-3.4c-1.7-7.6-1.5-14.6,1.5-22.1c1.5-3.5,3.7-7,7.1-8.2c0.2-0.1,0.5-0.1,0.7-0.1
				c0.3,0.1,0.5,0.3,0.6,0.6C792.4,153.2,793.2,158.5,792.8,163.7z"/>
			<path class="st6" d="M761.5,288c-7.1-1.4,4-50.6,12.1-85.6c2.4-10.1,4.5-19.1,5.8-25.4l8.3,1.7c-0.9,4.7-2.6,14.1-4.7,25.6
				C776.8,238,766.8,289.1,761.5,288z"/>
			<path class="st5" d="M783,204.3l-9.4-1.9c2.4-10.1,4-22.4,4.7-25.6l10.5,2.1C788.4,181.4,785.1,192.9,783,204.3z"/>
		</g>
		<g>
			<path class="st3" d="M865.1,225.1c-4.4,1.5-8,3.9-12.1,6.1c-1.5,0.8-2.9,1.5-4.4,2.3c-5.2-5.6-10.6-11.4-14.3-18.1
				c-1.9-3.5-3.9-7.4-6.9-10.1c3.2-2.3,6-5.2,8.7-8.1c2-2.1,3.9-4.2,5.9-6.3c1.2,1.6,2.4,3.3,3.7,5c-1.9,1.9-3.4,4.3-5.5,5.9
				c2.1-1.6,4.2-3.2,6.3-4.8c0.5,0.6,0.9,1.2,1.4,1.9c-2,2.3-4,4.5-6,6.8c2.3-1.8,4.7-3.6,7-5.4c4.1,5.8,7.9,11.7,11.8,17.6
				c-2.4,1.4-5.5,4.7-6.6,5.3c2.4-1.4,5-2.7,7.3-4.2C862.5,220.9,863.8,223,865.1,225.1z"/>
			<path class="st6" d="M851.4,233.1c-3.6,2.6-7.5,5.1-11.4,7.5c-1.5,0.9-3,1.8-4.6,2.7c-0.2,0.1-2.7-2.9-3.3-3.6
				c-2.2-2.7-3.1-4.6-6.9-4.4c-7.8,0.5-14.3,6.1-19.2,12.2c-4.9,6.1-8.9,13-15.1,17.8c-6,4.7-15,6.8-21.2,2.5
				c-0.1,0-0.2-0.1-0.2-0.2c0-0.1-0.1-0.2-0.1-0.2c-1.9-7.3,3.2-15.1,9.6-19.1c6.6-4.2,14.5-5.6,21.9-8.1c7.4-2.6,14.9-6.7,18-13.9
				c1.5-3.5,0-4.9-1.8-8c-0.5-0.8-2.4-4.2-2.2-4.3c1.3-1.1,2.7-2.3,4.1-3.4c3.5-2.9,7.3-5.7,10.9-8.2L851.4,233.1z"/>
			<path class="st5" d="M851.4,233.1c-3.6,2.6-7.5,5.1-11.4,7.5l-21.1-30c3.5-2.9,7.3-5.7,10.9-8.2L851.4,233.1z"/>
			
				<linearGradient id="SVGID_00000086667447440301107070000005941032954852594839_" gradientUnits="userSpaceOnUse" x1="-996.1288" y1="797.8724" x2="-991.6316" y2="867.7845" gradientTransform="matrix(0.5743 0.8186 -0.8186 0.5743 2053.1875 573.8318)">
				<stop  offset="0" style="stop-color:#F5F2D5"/>
				<stop  offset="1" style="stop-color:#000000"/>
			</linearGradient>
			<path style="fill:url(#SVGID_00000086667447440301107070000005941032954852594839_);" d="M771.3,263.5c0-5,3.2-9.5,7.2-12.5
				c4-2.9,8.8-4.6,13.6-6.1c4.7-1.5,9.6-3.1,13.7-5.9c-2.4,2.2-6,4.5-8.8,6c-9.5,5-18.8,11.3-23.9,20.7
				C772.5,265.3,771.3,264.3,771.3,263.5z"/>
		</g>
		<g>
			<path class="st5" d="M801.1,278.4c-5.8,6.8-11.7,14.2-19.7,18.4c-0.8,0.4-1.4,0.7-2.1,1c-0.1,0-0.1,0-0.2,0.1
				c-2.4,0.9-4.3,0.7-6.6-0.1c0,0,0,0,0,0c-2.9-1.2-5.6-2.7-8.3-4.2c-0.1-0.1-0.2-0.2-0.4-0.2c-2.6-1.6-5.1-3.3-7.7-4.9
				c-0.3-0.2-0.6-0.4-0.9-0.6c-0.3-0.2-0.6-0.4-0.9-0.6c-2.5-1.7-5-3.4-7.5-5.2c-0.1-0.1-0.2-0.2-0.3-0.2c-2.5-1.9-4.9-3.9-7.1-6.1
				c0,0,0,0,0,0c-0.3-0.4-0.7-0.7-0.9-1.1c-1.1-1.5-1.7-3-1.7-5c0-0.7,0-1.5,0.1-2.4c0.9-9,5.5-17.3,9.5-25.2c1-2,2.1-4,3.3-6
				c5.1-8.6,11.4-16.6,19.4-22.8c1.2,0.7,2.5,1.4,3.7,2.2c5.2,3,10.3,6.2,15.4,9.6c2.1,1.4,4.2,2.7,6.3,4.1c5,3.3,10,6.8,14.8,10.2
				c2,1.5,4,2.9,5.9,4.4c1.3,0.9,2.5,1.9,3.8,2.8c-1.9,7-5,13.5-8.9,19.6C807.5,270.4,804.5,274.5,801.1,278.4z"/>
		</g>
	</g>
	<g>
		<path class="st3" d="M329,210.6c-2.7-5.9-4.6-6.7-4.5-8.2c0.5-8.3-4.3-12.5-5.8-13.8c-1.4-1.2-0.8-5.5-1.4-6.9
			c-1.6-3.9-4.8-5.9-4.8-5.9c-1.2-4-3.1-4.2-6.7-2.8c-2.1,0.8-3.4,0.1-4.5,0.8c-3.2,2.2-3.8,5.8-8,8.4c-1.8,1.1-2.4,1.2-3.6,2.7
			c-1.9,2.3-1.1,4.6-1.6,5.4c-1.9,3.1-4.1,4.3-4,6.6c0.1,2.9-0.9,5.2-1.5,6.5c-0.8,1.7,0.9,3.6-0.1,5.1c-1.4,2.2-0.7,6-0.3,10.8
			c0.1,1.1-1.4,4.2-1.3,5.4c0.3,1.7,1.4,2.6,1.9,4.3c0.4,1.4,0.9,5.2,1.4,6.5c0.8,1.9,0.7,1.4,0.8,3.4c0.2,2.9-0.7,3-0.3,6
			c0.5,4.4,0.4,11.2,6.7,15.8c3.9,2.8,2.3,4.9,4.6,9.5c1.6,3.2,2.9,2.3,3.7,3.2c2.5,2.8,5.8,3.6,8.1,3.1c1.1-0.3-0.1,2.9,6.5,2.8
			c1.1,0,1.6,1.3,5.1,2.7c1.1,0.5,2.1,0.7,3.4,0.6c3.2-0.3,6.8-1.3,11.9-2.1c8.9-1.4,12.6-7.7,12.9-12.8c0.3-5.2,1.5-4.5-2.5-9.2
			c-1.3-1.5-5.7-7.8-5.9-12.2c-0.2-3.3-0.7-6.1-0.8-9.2c-0.1-2.2-2-6.1-3-7.3c-2.2-2.5-3.5-4.1-4.7-8.3
			C330.4,219.7,331.3,215.6,329,210.6z"/>
		<path class="st5" d="M291.4,224.5c-2.6-2.3-0.7-4.6-0.1-5.2c1.5-1.5,4.2,1.3,6.5,2.7c2.3,1.4,6.4-1.1,6.9-6.2
			c0.2-2.2,1.1-4.1,3.3-5.2c1.8-0.9,4.5,0,6.1,1.3l0-0.7c-1-1.7-4.5-2.6-6.8-1.5c-2.2,1-4,4-4.4,6.2c-0.4,2.2-2.4,6.6-5.5,4.8
			c-2.4-1.4-5.1-3.9-6.5-2.4C289.5,219.8,288.3,222.9,291.4,224.5z"/>
		<path class="st5" d="M307.2,210.1c-1.9-5.7-8-7.8-14.6-3.4c0,0-7.2-5.5-10.2,3c0,0,4.6-7.4,9.6-1.5c0,0,6.6-4,9.7-2.3
			c3,1.8,4.3,4.9,4.3,4.9L307.2,210.1z"/>
		<path class="st5" d="M308.9,177.4c-3.4-1.5-5.2,1.7-5.9,3.7c-0.5,0.6-3.3-2.7-8.8,1.2c3.6-5.4,8.3-2.5,8.3-2.5s1.2-2.9,3.8-3.3
			C308.4,176.1,308.9,177.4,308.9,177.4z"/>
		<path class="st5" d="M316.7,224.8c-2.3,0.3-5.2,3.8-3.9,4.9c1.3,1.1,3.9,2.3,2.2,4.1c-1.7,1.9-10.3,7.6-5.6,13
			c0.8,0.9,5,1.1,3.2,0.5c-2.2-0.8-3.3-5.9-1.6-8.2c1.2-1.6,4-1.8,5.1-4.4c1.1-2.6-2.8-5.1-1.2-7.3c1.6-2.2,4.2-0.5,4.4-2
			C319.5,224.2,316.7,224.8,316.7,224.8z"/>
		<path class="st5" d="M322.8,202.4c-1-2.7-5.7-6.6-8.7-5.8c-3,0.8-4,3.7-4.4,3.7c-0.6,0-0.3-3.4,4.1-4.7c4.3-1.3,8.2,0.9,8.6,2
			C322.7,198.8,322.8,202.4,322.8,202.4z"/>
		<path class="st5" d="M291.9,243.7c1.4-0.1-2.6,3.7,0.9,9.1c2.2,3.4,8.2,7.4,11.9,5.8c4.7-2,7.6-1.3,10.2,2
			c1.9,2.4,4.7,0.6,4.7,0.6l0.2,0.9c0,0-2.7,3.2-5.6-0.3c-2.6-3.1-3.8-3.9-6.2-3.3c-2.4,0.6-5.3,3.2-9.8,0.4
			c-4.5-2.7-7.4-5.6-7.8-9.6C290.2,245.5,291.9,243.7,291.9,243.7z"/>
		<path class="st5" d="M328.1,274.2c-0.7-1.9-3.9-3.9-7.8-2.1c-2.9,1.4-4.3,3.3-4.3,3.3s-1.7-4.3-5.9-4.3c-4.2,0-5,5.2-2.6,5.4
			c1.4,0.1,1.1-0.5,1.1-0.5s-3.2-1.1,0.3-3.5c0.9-0.6,3.8,0.1,4.3,1.5c0.5,1.4,0.8,3.6,3,2.2c2.2-1.4,3.8-3.5,6-3.5
			c4.1,0,4.7,1.4,5.7,1.6C329,274.5,328.1,274.2,328.1,274.2z"/>
		<path class="st5" d="M324,282.2c2.4-0.9,1.7-5-0.6-5.7c-2.4-0.7-1,0.4,0.4,1c1.1,0.5,0.8,4.2-2,4.8
			C323.2,282.8,324,282.2,324,282.2z"/>
		<path class="st5" d="M301,274.5c-0.3-5.5,3.2-4.2,3.5-4.7c0.4-0.7-5.9-0.2-4.6,3.7C300.5,275.1,301,274.5,301,274.5z"/>
		<path class="st5" d="M339.6,279.4c-3.3,2.1-6.7-2.2-6.8-4.2c-0.1-1.8-0.9-1.7-1,0c-0.1,1.5,1.9,5.2,3.2,5.3
			C336.2,280.6,339.6,279.4,339.6,279.4z"/>
		<path class="st5" d="M301.7,180.5c0.4-0.8,3.4,1.1,5,2.6c0.8,0.7,1.8,2.3,2.3,3.4c1.5,3.2-1.3,5.8-1.4,4.4c-0.1-0.8,1.6-1.5,0-5.1
			C305.5,181.5,301.4,181,301.7,180.5z"/>
		<path class="st5" d="M302.1,191.3c3.2,0.3,6.9,0.8,9.6-0.7c3.2-2,5.3-0.5,5.7-0.5c1.2,0-1.8-1.6-2.8-1.6c-0.1,0-0.1,0-0.2,0
			c0.9-1.4,1.8-3,1.1-4.7c-1.2-2.7-1.1-3.3-1.4-2.7c-0.3,0.6,1.2,3.5,0.6,4.8c-0.8,1.9-2.4,4.8-5.5,4.8c-3.1,0-7.1-0.6-10.3-0.5
			c-3.5,0.1-9.8,0.4-9.8,6.3c0,2.5,1.6,3.4,1.6,3.4C286.7,189.1,298.9,191,302.1,191.3z"/>
		<path class="st5" d="M315.7,247.8c-3.1-1-6.5-2.4-9.5-1.5c-3.5,1.2-7.7-1.1-8.7-2.9c-0.6-1-1.7,1,4.8,4.3c0.1,0-0.4,0.7-0.3,0.7
			c-1.6,1.1-1.6,2-1.3,3.9c0.5,2.9,3.1,3.5,2.7,3c-1-0.9-2.6-3.2-1.1-5c1.3-1.6,3.8-3.4,6.8-2.7c3,0.7,5.1,2,8.2,2
			c3.5,0.1,6.4-0.1,7-2.5c0.6-2.4-0.3-4.7-0.3-4.7C323.6,248.4,318.8,248.8,315.7,247.8z"/>
		<path class="st5" d="M291,260.4c1.5,1.4,2.6,2.6,3,3.7c0.4,1,0.3,2.8,0.9,4.4c0.2,0.6,0.5,1.3,0.9,2c0.8,1.7,1.7,2.4,2.5,2.8
			c0.8,0.3,1.2,0.4,1.4,0.6c2.6,2.9,6.1,3.8,8.6,3.3c0,0,0,0,0,0c0.1,0.2,0.3,0.7,0.7,1.1c0.8,0.9,2.4,1.7,5.7,1.6
			c0.3,0,0.6,0.2,1.3,0.7c0.7,0.5,1.8,1.2,3.5,1.9c1.2,0.5,2.2,0.8,3.6,0.6c1.9-0.2,4.2,0,6.6-0.5c1.6-0.3,3.2-1.3,5.2-1.6
			c2.3-0.4,4.1-0.8,5.6-1.3l0,0c2.1-0.8,4.2-2.6,5.2-3.8c2-2.4,2.7-4.9,2.4-6.8c-0.1-0.5,0.6-0.6,1.1-2.3c0.5-1.7-1.3-4.2-2-6
			c0-0.2-0.1-0.6-0.2-1.2c-1-3.6-3.7-7.4-5.1-11.2c-0.2-0.8-1.2-2.3-1.2-3c-0.2-3.4-1.6-5.3-1.7-8.4c0-1-0.3-2.1-0.8-3.2
			c-0.7-1.9-1.7-3.7-2.4-4.5c-1.8-2.1-2.9-3.4-4-6.1c-0.2-0.6-0.4-1.2-0.6-1.9c-0.2-0.6-0.2-2-0.3-3.7c-0.1-1.7-0.3-3.9-1.2-6.2
			c-0.1-0.4-0.3-0.7-0.5-1.1l0,0c-2.2-5-4-6.6-4.3-7.4c-0.1-0.2-0.1-0.3-0.1-0.5c0.2-2.9-0.3-5.4-1-7.4c-1.5-3.9-4-6.1-5-6.9
			c-0.1-0.1-0.2-0.3-0.4-0.6c-0.3-0.7-0.4-1.9-0.4-3c-0.1-1.1-0.1-2.2-0.4-3c0,0,0,0,0-0.1c-1.5-3.5-4.1-5.5-4.8-6
			c0-0.1-0.1-0.3-0.1-0.4c-0.7-1.9-2.4-3.1-3.7-3.2c-2.3-0.3-3.5,1.3-4.1,1c-2.4-1.1-6.5,2.2-7.5,3.9c-1.1,1.7-1.7,3.3-4.4,5
			c-1.3,0.8-1.8,1-2.5,1.7c-1.7,1.2-2.1,3.8-2.2,4.9c-0.1,1-0.1,1.8-0.2,1.9c-0.9,1.5-2.4,2.3-3.2,3.3c-0.8,1-1.4,2-1.4,3.4
			c0.1,3.3-0.7,5-1.3,5.8c-1.4,1.9,0.9,4.3-0.3,5.4c-2.3,2.3,0.3,9.8-0.4,11.6c-1.3,3.2-1.9,5-0.6,7.2c0.5,0.9,1.8,2.2,2,2.6
			c0.2,0.4-0.4,2.5,0,3.9c0.7,2.6,2,4,2,4.5c0,0.5-0.5,0.5-0.7,3.9c-0.2,3,0.6,9.3,1.5,11.6C287.1,256.6,288.8,258.3,291,260.4z
			 M291.9,260.3c-1.9-1.8-4-4.7-5.1-7.8c-0.8-2.2-1-7.6-1.2-9.4c-0.5-4,1.2-4.3,0.7-5.6c-0.1-0.4-1.4,0.2-2.3-4.4
			c-0.4-2.3-0.3-3.5-0.4-3.8c-0.4-1,0.7-0.9-0.2-1.4c-2.2-1.2-2-2.8-1.9-4.2c0.1-1.2,1.5-3.9,1.5-4.2c0.1-4.3-1.4-7.5,0-10.3
			c1.6-3-1.2-4.4,0.2-6.4c0.8-1.1,1.6-2.5,1.5-5.9c0-0.9,0.1-2.1,0.9-3.1l0.1-0.2c0.7-1,1.9-1.5,2.9-3c0.4-0.7,0.2-1.5,0.4-2.4
			c0.1-0.9,0.3-1.9,1.2-3c1.1-1.4,1.6-1.4,3.5-2.6c2.9-1.8,3.7-3.6,4.7-5.3c1-1.6,3.3-4.9,6.8-3.7c0.7,0.2,2.7-1.6,3.9-1.3
			c1.7,0.4,2.1,1.3,2.7,2.9c0.1,0.2,0.1,0.4,0.2,0.6l0.1,0.3l0.2,0.1c0,0,0.2,0.1,0.5,0.3c0.3,0.2,0.7,0.6,1.2,1
			c1,0.9,2.1,2.3,2.9,4.2l0,0l0,0l0,0c0.2,0.4,0.2,1.5,0.3,2.6c0.1,1.2,0.2,2.4,0.5,3.4c0.2,0.4,0.4,0.8,0.7,1.1
			c1,0.8,3.3,2.9,4.6,6.4c0.7,1.8,1.1,4.1,0.9,6.8c0,0.4,0,0.7,0.2,1.1c0.6,1.5,2.2,2.6,4.4,7.5l0.5-0.2l-0.5,0.2
			c0.2,0.3,0.3,0.7,0.4,1c0.8,2.2,1.1,4.1,1.1,5.8c0.1,1.7,0,3,0.3,4c0.2,0.7,0.4,1.4,0.6,2c1.1,2.9,2.4,4.5,4.2,6.6
			c0.5,0.6,1.5,2.4,2.1,4.1c0.4,1,0.7,2,0.7,2.7c0.1,3.1,0.6,5.9,0.8,9.2c0.1,1.2,0.4,2.4,0.9,3.7c1.5,3.9,4.2,7.7,5.2,8.9
			c0.7,0.8,1.1,1.6,1.4,2.3c0.6,1.5,1.8,3.5,1.4,5.1c-0.5,1.6-1.2,2.2-0.5,3.3c0.8,1.3-1.4,3.9-2.1,5.1c-0.7,1.1-3,3.2-5,4
			c-1.4,0.5-5.1,0.8-6.1,0.4c-0.2-0.1-2,2.1-4.4,2.5c-4.5,0.9-4.2-1.8-5.3-0.9c-1.5,1.2-3.5,1.2-4.6,0.8c-1.7-0.7-2.6-1.3-3.3-1.8
			c-0.7-0.5-1.2-0.9-2-0.9c-2.1,0.1-3.4-0.3-4.1-0.6c-0.7-0.4-0.9-0.8-1.2-1.1c-0.1-0.2-0.2-0.5-0.6-0.9c-0.2-0.2-0.5-0.2-0.7-0.1
			c-2.1,0.5-5.3-0.3-7.6-2.9c-0.6-0.7-1.3-0.6-1.8-0.9c-0.5-0.2-1.1-0.7-1.9-2.2c-0.3-0.7-0.6-1.3-0.8-1.9c-0.6-1.5-0.8-2.6-1.2-3.8
			C294.3,263,293.5,261.8,291.9,260.3z"/>
		<path class="st5" d="M286.7,192.6c1.4-1,4.3-3.6,5.8-1.2c0.4,0,0.8,0.5,0.5-0.2c-1.6-3.2-3.9-1.3-4.6-0.6
			C287.7,191.3,286.7,192.6,286.7,192.6z"/>
		<g>
			<path class="st3" d="M324.9,212.1c-1.9-6.2-1-8-2.1-9.1c-5.8-5.9-5-12.2-4.7-14.2c0.3-1.8-3-4.7-3.5-6.1c-1.4-4-0.3-7.6-0.3-7.6
				c-1.7-3.8,0-6.6,3.6-8c8.3-3.1,8.6,1.3,15,0.2c2.1-0.4,2.6-0.7,4.5-0.4c2.9,0.5,3.9,2.8,4.8,3c3.5,1,5.9,0.5,7.4,2.3
				c1.8,2.2,3,3.8,4.3,4.4c1.7,0.8,2.9,0.9,4.6,1.4c1.6,0.5,2.8,2.4,3.5,4.2c0.5,1.3,5.5,4.2,6.3,7.7c0.8,3.3,1.9,0.9,3.2,4.7
				c0.5,1.5,0.7,3.9,0.2,4.5c-0.1,0.1,2.5,1.7,3.4,3c2,2.7,4.8,5.5,6.3,7.6c2.5,3.7,5.1,9,4.3,15.7c-0.6,4.8,1.8,4.8,3.1,9.8
				c0.9,3.5-0.7,3.7-0.7,4.9c0,3.7-1.9,6.5-4.1,7.7c-1,0.5,2,2.1-3.1,6.3c-0.8,0.7-0.4,2-2.1,5.4c-0.5,1.1-1.1,1.9-2.1,2.7
				c-2.6,1.9-5.9,3.5-10.3,6.3c-7.6,4.8-10.9,2.9-14.5-0.8c-3.6-3.7-7.8-2.7-7.9-8.9c0-2-3.5-8.7-3.6-11.8c-0.2-3.3-3.4-6.3-5.4-8.7
				c-1.4-1.7-2.5-5.9-2.5-7.4c0-3.3-0.1-5.4-1.9-9.3C329.9,219.9,326.5,217.4,324.9,212.1z"/>
			<path class="st5" d="M348.3,255.2c2.3-0.5,4.4,1.2,6,3.6c1.6,2.3,2,6.2,0.8,5.9c0.8,2.3,2.3-2.3,2-3.3c1.7,1.6,5.6-1.4,5.5-3.5
				c-2,1.5-3.8,3.3-5.7,1c-1.9-2.2-3.6-3.8-4.8-4.1C350.9,254.6,348.3,255.2,348.3,255.2z"/>
			<path class="st5" d="M368.6,256c0.1-0.1,1.3-1.8,0.5-4c-0.8-2.2-1.8-3.1-5.6-5.3c3.5-1,4.7-5.3,2.8-7.1c-1.9-1.8-4.2-3.8-7.1-1.8
				c-7.2,4.8-12.3,7.4-14.2,7.7c-1.9,0.3-5.6-0.8-7.4-3.2c1.3,2.6,4.2,4.7,6.2,4.9c2.7,0.2,6.9-2.2,10.8-4.9c3.8-2.7,7-6.1,10-1.8
				c0,0,1.5,3.3-2.7,6.6c-1.6,0.9,5.1,2.3,6,4.5C369.8,255.8,367.9,257.5,368.6,256z"/>
			<path class="st5" d="M365.5,239.7c-0.3,2.7,4.9-5.7,7.1-6.2c4-1,3.5-2.4,2.8-6.6c-0.8-4.3-2.1-8.7-8.1-11.8
				c-6-3.1-8.6-10.3-5.1-11.6c-3.1,0.3-4.6,6.2-1.8,8.4c2.9,2.2,8.1,4.2,10.3,7.9c2.2,3.7,5,10.3,2.5,11.3
				C370.9,232,365.6,239.3,365.5,239.7z"/>
			<path class="st5" d="M335.3,238c-0.9-1.1-1.4-1.8-1-1.9c10.8-2.6,11.1-10,6.3-15.5c-3.3-3.6-4.9-5.1-5-7.9
				c-0.1-3,0.9-9.3-0.6-11.3c-2.2-2.9-5-4.9-8.5,0.4c0.9-2.8,1.4-5.9,5.2-4.4c-1.4-2.8,0.6-8.9,5.2-8.6c-6.3,1.4-5.3,7.4-2.3,10
				c3,2.6,2,4.4,2.6,9c0.5,3.5-1,7.2,2.3,9.7c3.3,2.5,5.1,6.4,5.3,9.4C345.4,234.4,335.3,238,335.3,238z"/>
			<path class="st5" d="M358.6,192.8c-2.1-0.2-2.4,3.5-3.3,6.1c-1.2,3.4-6.2,1.6-7.9,0.1c-2.3-2-4.5-2.6-6.8-1.9
				c-2.4,0.7-4.4,3.7-4.1,5.6l0.4,0.5c0.3-1.9,1.8-4.4,3.7-4.9c2.4-0.7,4.3,0.2,5.9,1.7c3.8,3.5,8.4,2.7,9.3,0.2
				c0.8-2.6,1-6.4,3.1-6.3c0.9,0,3.8,0.5,3.4,4C363.6,194.5,360.7,193,358.6,192.8z"/>
			<path class="st5" d="M338.5,174.9c-0.5,0-0.9-0.9-0.9-0.9c2.8-1.1,7.6-0.4,8.6,5.4c0.6,0.4,16.2,2.7,12.7,13.9
				c-0.5,0.1-1.8,0.8-1.8,0.8s1.8-7.7-3.2-10.4c-5-2.7-8.5-3.2-8.5-3.2s0.4-4.9-3.7-5.8C340.8,174.6,339.3,175,338.5,174.9z"/>
			<path class="st5" d="M356.8,185.5c3.1-1.5,8.7,1.7,9.8,8.9c0,0,5.7,2.7,0.2,9.1c0,0,4.5-7.3-1.2-8.1c0,0-1-5.8-3.5-7.2
				c-2.5-1.3-4.5-1.2-4.5-1.2L356.8,185.5z"/>
			<path class="st5" d="M318.2,173.9c1.6-3.4,5-2.2,6.9-1.1c0.8,0.2,0.7-4.3,7.4-4.9c-6.2-1.7-7.9,3.5-7.9,3.5s-2.8-1.4-5.1,0
				C317.7,172.6,318.2,173.9,318.2,173.9z"/>
			<path class="st5" d="M314.6,182.6c4.2,4.3,8,2.9,9.6,0.1c1.7-2.8,3.4-7.5,6.3-8.9c2.8-1.4,6.5-1.7,8,0.9c1.6,2.5,0.6,4.1,0,4
				c-0.6-0.1-0.2-4.1-2.5-4.5c-2-0.3-5.3-0.8-7.1,1.7s-2.2,6.3-4.4,8.3c-2.6,2.4-5.1,3.5-7.1,2C315.5,185,314.6,182.6,314.6,182.6z"
				/>
			<path class="st5" d="M318.3,178.8c0-1.9,2.5-4.4,3.7-3.6c1.2,0.8,0,0.9-1.3,1.7c-1.2,0.7-1.7,3.9-1.1,4.8
				c0.5,0.8,0.3,0.9-0.3,0.2C318.2,180.5,318.3,178.8,318.3,178.8z"/>
			<path class="st5" d="M331.9,181.3c1.9-1.3,6.4-0.6,6.2,1.1c-0.3,1.7-1.4,4.3,1.1,4.5c2.5,0.3,12.8-1.1,12.7,6.1
				c0,2.2-0.1-3.5-6.3-4.8c-2-0.4-4.2,1.3-6.8,0.1c-2.6-1.2-1.2-5.7-3.9-6.3c-2.6-0.6-4.1,2.8-4.6,1.4
				C329.8,182.1,331.9,181.3,331.9,181.3z"/>
			<path class="st5" d="M344.1,228.4c0.9,1.5,6.3,5.5,10.5,2c4.2-3.4,9.7-6.2,13-3.7c2.3,1.8,3.5,4.7,3.4,6.3c0,0.6-1.7,2.4-1.5,2
				c0.7-1.7-0.5-7.2-4.8-7.2c-3.5,0-5.4,1.3-8.8,3.7c-4.3,3.1-10.5,0.7-11.6-0.7C343.2,229.3,344.1,228.4,344.1,228.4z"/>
			<path class="st5" d="M344.1,204.3c-2.6,1.9-1.8,4.4,0.7,7.8c2.5,3.4,7.7,8.3,10,6.5c2.3-1.8,7.9-2.3,7.9-0.8c0,1.6,0,1-2,0.5
				c-2-0.5-4.3,2.1-7.7,1.9c-3.4-0.3-9.6-6.3-10.7-9.9c-1.1-3.6-0.5-7.1,2.2-6.9C347.3,203.6,344.1,204.3,344.1,204.3z"/>
			<path class="st5" d="M346,213.8c2.7-0.1,8.1-7.2,6-8.2c-0.9-0.4-2-0.5-2-0.5c2.3-1.2,4.2,0.6,3.4,1.8c-0.8,1.2-1.2,3.2-0.4,2.9
				c0.8-0.3,3.6-1.5,2.7-0.5c-0.7,0.8-2.9,0.2-4.5,2.7c-2.5,3.9-4.9,3.2-4.9,3.2L346,213.8z"/>
			<path class="st5" d="M321.8,201.4c-3.1-3.3-0.1-8.7,2.8-10.1c2.8-1.4,4.6,0.1,5.3-0.4c0.5-0.4-1.5-2.4-5.6-0.5
				c-4.1,1.9-5.6,6.1-5.2,7.2C319.4,198.7,321.8,201.4,321.8,201.4z"/>
			<path class="st5" d="M359.8,205.7c-0.1-0.9,1.5-2.5,2.9-2.3c3.5,0.5,7.1,6.4,7.1,3.9c0-2.5,4.7-4.3,6.3-3.3
				c1.6,1,2.1,2.3,2.1,2.3s-1.6-1.9-3.7-1.1c-2.1,0.8-3.1,3-4.1,3.7c-1,0.7-4.4-3.3-6.5-3.7c-3.6-0.7-3.2,2.8-3.2,2.8L359.8,205.7z"
				/>
			<path class="st5" d="M366.8,210.3c-0.9,0.3,1.9,3,4.5,3.3c2.5,0.3,5-1.3,5.6,1.3c0.7,2.5-3.4,7.2-3.4,7.2l0.3,1.7
				c0,0,6.8-8.5,3.6-10.5c-3.1-1.9-4.6-0.4-6.4-0.8C368.8,212,366.8,210.3,366.8,210.3z"/>
			<path class="st5" d="M377.3,216.5c-1.2,0.9,4.6,1.1,5.7,7.9c0.6,4.2-1.4,11.5-5.4,12.9c-5.1,1.7-6.9,4.2-6.7,8.7
				c0.2,3.3-3.3,3.8-3.3,3.8l0.5,0.8c0,0,4.4,0.6,4.2-4.2c-0.2-4.3,0.4-5.7,2.6-6.9c2.3-1.2,6.4-1.2,8.1-6.4c1.6-5.3,2-9.6-0.5-13
				C379.9,216.7,377.3,216.5,377.3,216.5z"/>
			<path class="st5" d="M368.2,261.6c-0.7-1.9-1.2-7.8,3.8-8.9c3.2-0.7,5.4-0.4,5.4-0.4s-1.6-4.3,1.6-7.1c3.2-2.8,7.2,0.6,5.5,2.4
				c-1,1-1.2,0.4-1.2,0.4s1.7-3-2.6-2.4c-1.1,0.1-2.8,2.6-2.3,3.9c0.5,1.4,1.8,3.2-0.8,3.6c-2.6,0.4-5.1-0.1-6.8,1.3
				c-3.1,2.7-2,6.3-2.6,7.2C367.7,262.4,368.2,261.6,368.2,261.6z"/>
			<path class="st5" d="M375.9,262.7c-2.4,0.9-4.6-2.6-3.3-4.7c1.3-2.1,1-0.4,0.4,1c-0.5,1.1,2.2,3.7,4.6,2.3
				C376.9,262.6,375.9,262.7,375.9,262.7z"/>
			<path class="st5" d="M388.1,241.7c-3.4-4.4-5.2-1.1-5.8-1.2c-0.8-0.3,4.3-4,5.9-0.3C388.9,241.8,388.1,241.7,388.1,241.7z"/>
			<path class="st5" d="M362.3,270.8c3.8-0.6,3.6-6.1,2.4-7.6c-1.1-1.4-0.4-1.9,0.7-0.7c1.1,1.1,2,5.2,1.1,6.1
				C365.6,269.5,362.3,270.8,362.3,270.8z"/>
			<path class="st5" d="M351.9,254.8c-3.4-1.1-7.1,1.5-7.7,3.9c-0.6,2.4,0.8,3.9,0.8,3.9s2-10.2,8.6-4.9
				C356.4,259.9,351.9,254.8,351.9,254.8z"/>
			<path class="st5" d="M328.6,218.2c2,2,4.5,1.1,5.5,0.7c1.1-0.4,0.4,0.6,0.1,0.8c-2.3,1.8-4.8,0.7-3,1.5c1.8,0.9,3.5,0.9,4.8,3.2
				c0.9,1.5,1,1.9-0.5,0.2c-2.1-2.4-4.2-1.4-4.2-1.4L328.6,218.2z"/>
			<path class="st5" d="M330.1,203.2c-0.8-0.2-2,2.7-2.3,4.6c-0.2,0.9,0,2.5,0.3,3.4c0.8,2.8,4,2.7,3.3,1.8
				c-0.4-0.5-1.7,0.1-2.6-3.1C327.7,206.2,330.6,203.4,330.1,203.2z"/>
			<path class="st5" d="M359.4,218.2c2.1-0.8,5,3.9,0.3,4.8c-0.3,1,3.4,0.1,3.7-2.2c0.3-2.3,0-3.4-1.6-3.7
				C360.2,216.8,359.4,218.2,359.4,218.2z"/>
			<path class="st5" d="M354.7,176.6c-2.9-1-5.7,4.4-4.4,4.6c0.8,0.1,0.7-2.7,3.7-3.6c2-0.6,2.8-0.1,2.8-0.1L354.7,176.6z"/>
			<path class="st5" d="M324.2,190.4c2.6-1.9,4.1-4.3,4.2-5.6c0.3,2.4-2.2,5.5-2.2,5.5L324.2,190.4z"/>
			<path class="st5" d="M382.4,220.1c-0.3-1.3,0.6-4.1,2.7-3.3c-0.7-1.9-0.9-2.1-0.9-2.1s-3.7,2.3-3.1,3.9
				C381.7,220.2,382.4,220.1,382.4,220.1z"/>
			<path class="st5" d="M330.5,173.9c3.4-1.4,3.5-4,3.7-4.3c0.7-1,0.3,2.4-0.3,3.2C333.3,173.6,330.5,173.9,330.5,173.9z"/>
			<path class="st5" d="M360.6,228.5c-4.4,2.5-4.7,5.1-5.2,6.8c-0.5,1.8-1.1,2.1-0.9,0.4c0.3-1.7,1.2-4.8,2.4-5.6
				C358.2,229.4,360.6,228.5,360.6,228.5z"/>
			<path class="st5" d="M351.3,243.7c1.1,4.2,4.1,7.9,6.6,7.6c2.4-0.3,1.3,0.6-0.2,1c-2.8,0.7-8.7-6-7-8.3
				C351.8,242.6,351.3,243.7,351.3,243.7z"/>
			<path class="st5" d="M347.5,265c0,0,1.4,1.8,2.7,1.9c1.3,0.1,2.2-2.2,2.5-4.1c0.3-1.9-1.7-3.6-1.8-2.7c1.1,1.5,0.1,6-2.6,4.9
				L347.5,265z"/>
			<path class="st5" d="M385.1,215.8c-0.9-2.3-2.5-5-4.5-7.2c-2.5-2.8-4.3-6.3-5.8-7.8c-0.9-0.9-2.2-1-2.5-2.1
				c-0.1-0.4,0.8-2.5-0.3-4.4c-1.2-2-2.2-2.3-2.4-2.9c-0.1-0.4-1.4-3.4-2.9-5c-2.2-2.2-4.1-3.9-4.2-4.2c-0.5-2.5-2.7-4.1-4.7-4.7
				c-1.6-0.5-2.5-0.5-3.6-0.8c-1-0.3-2.1-2.1-4.2-4.6c-0.9-1.1-2-1.4-3.3-1.7c-1.3-0.2-2.9,0.1-4.6-0.4c-0.1,0-0.7-0.6-1.4-1.3
				c-0.8-0.7-2.8-2.4-4.9-2.2c-0.9,0-1.5,0.1-3,0.4c-3.1,0.5-4.6-0.3-6.6-0.8c-2-0.6-4.3-0.9-8.5,0.7c-1.8,0.7-3.2,1.7-4,3.1
				c-0.8,1.4-0.9,3.2-0.2,5c0,0.1,0.1,0.3,0.2,0.4c-0.2,0.9-0.9,4.1,0.3,7.7c0,0,0,0.1,0,0.1c0.3,0.8,1,1.6,1.7,2.5
				c0.7,0.9,1.4,1.8,1.6,2.5c0.1,0.3,0.1,0.5,0.1,0.7c-0.2,1.3-0.6,4.7,0.8,8.5c0.8,2,2,4.2,4.1,6.3c0.1,0.1,0.2,0.2,0.3,0.4
				c0.4,0.9,0.1,3.2,1.7,8.4l0,0c0.1,0.4,0.2,0.8,0.4,1.1c0.9,2.4,2.1,4.1,3.2,5.5c1.1,1.4,2,2.4,2.3,3c0.3,0.7,0.6,1.3,0.8,1.8
				c1,2.7,1,4.5,1.1,7.2c0,1.1,0.5,3.1,1.2,5c0.4,1.1,0.9,2.2,1.5,2.9c1.9,2.3,3.4,4.7,5.4,7.4c0.4,0.5-0.1,1.5,0.3,2.3
				c1.4,3.8,1.5,9.2,3.1,12.6c0.3,0.6,0.5,0.9,0.6,1.1c0.7,1.8,2.1,2.9,3.5,3.9c1.5,1,2.1,0.6,2.3,1c1.1,1.6,4.8,4.7,6.4,5.2
				c1.5,0.5,3.2,0.4,5.3-0.4l0,0c1.4-0.5,3.1-1.4,5.1-2.7c1.7-1.1,3.6-1.4,5-2.3c2.2-1.3,3.7-2.9,5.3-4c1.1-0.8,1.7-1.7,2.3-2.9
				c0.9-1.7,1.2-2.9,1.4-3.8c0.2-0.9,0.3-1.2,0.6-1.4c2.6-2.2,3.2-3.7,3.2-5c0-0.6-0.2-1.1-0.2-1.3c0,0,0,0,0,0
				c2.3-1.2,4.2-4.2,4.3-8.1c0-0.3,0.3-0.6,0.6-1.4c0.3-0.8,0.5-1.9,0-3.7c-0.2-0.8-0.4-1.5-0.7-2.1c-0.6-1.6-1.8-2.9-2.2-3.9
				c-0.4-1.1-0.3-2.7-0.1-4.8C386.6,221.5,386.3,219,385.1,215.8z M386.1,229.9c0.4,1.2,1,2.2,1.6,3.7c0.2,0.6,0.4,1.2,0.6,1.9
				c0.4,1.6,0.3,2.3,0,2.9c-0.2,0.5-0.7,0.9-0.7,1.9c0,3.5-1.8,6.1-3.8,7.2c-0.2,0.1-0.4,0.3-0.5,0.6c-0.1,0.5,0.1,0.8,0.1,1
				c0.1,0.4,0.2,0.9-0.1,1.6c-0.3,0.8-1,1.8-2.7,3.2c-0.6,0.5-0.7,1.2-0.9,2c-0.2,0.8-0.5,1.9-1.3,3.5c-0.5,1.1-2,2.4-4,2.5
				c-1.4,0,0.6,1.9-3.3,4.1c-2.1,1.2-4.9,0.8-5,1c-0.5,1-3.5,3.2-4.8,3.7c-2,0.7-3.4,0.8-4.6,0.4c-1.2-0.4-4.8-4.4-5-5.8
				c-0.2-1.2-2,0.7-3.4-0.2c-1.4-0.9-2.5-1.9-3.1-3.4c-0.3-0.7-0.4-1.5-0.4-2.6c0-1.6-2.2-6.3-3.7-10.1c-0.5-1.3,0.7-2.4,0-3.4
				c-2-2.6-3.5-5-5.5-7.4c-0.4-0.5-0.9-1.5-1.3-2.5c-0.7-1.7-1.1-3.7-1.1-4.5c0-2.7-0.1-4.8-1.2-7.7c-0.2-0.6-0.5-1.2-0.8-1.9
				c-0.5-1-1.4-1.9-2.4-3.2c-1-1.3-2.1-2.9-3-5.1c-0.1-0.3-0.2-0.7-0.4-1l-0.5,0.1l0.5-0.1c-1.6-5.1-1.1-7-1.7-8.5
				c-0.1-0.3-0.3-0.6-0.6-0.9c-1.9-2-3.1-3.9-3.8-5.8c-1.3-3.5-0.9-6.5-0.7-7.8c0.1-0.5,0-0.9-0.2-1.4c-0.4-1-1.1-2-1.8-2.9
				c-0.7-0.9-1.4-1.8-1.5-2.1l0,0l0,0l0,0c-0.6-1.9-0.7-3.7-0.6-5c0-0.7,0.1-1.2,0.2-1.6c0.1-0.4,0.1-0.6,0.1-0.6l0.1-0.2l-0.1-0.2
				c-0.1-0.2-0.2-0.4-0.2-0.5c-0.6-1.6-0.5-2.8,0.1-3.9c0.6-1.1,1.8-2,3.5-2.7c4.1-1.5,6-1.2,7.9-0.7c1.8,0.6,3.7,1.4,7,0.9
				c2.1-0.4,2.6-0.6,4.3-0.4c1.3,0.2,2.2,0.8,2.8,1.4c0.7,0.6,1.1,1.3,1.9,1.6c1.8,0.5,3,0.1,4.2,0.3l0.2,0.1c1.2,0.2,2.1,1,2.7,1.7
				c2.1,2.6,3.8,4.5,3.9,4.5c0.9-0.1,3.8,0.7,5.2,1.3c1.8,0.7,3.1,2.9,3.1,3.7c0,0.8,1.8,1.9,4.6,4.8c1.6,1.7,2.4,4.5,2.5,5.3
				c0,0.3,1.6-0.1,2.7,2.5c1.4,3.2-0.3,4-0.3,4.4c-0.1,1.3,1.8,0.9,2.7,2c2.8,3.5,5.8,6.4,7.5,9c1,1.5,2.4,3.4,3.2,5.6
				c1.2,3.1,1.5,6.6,1.3,9.2C385.3,227.2,385.6,228.6,386.1,229.9z"/>
			<path class="st5" d="M344.1,170.4c-1.7,0.1-3.7,1.3-4.1,2c-0.3,0.3-0.5,0,0-0.6c0.5-0.6,1.4-1.7,2.4-1.6
				C343.3,170.4,344.1,170.4,344.1,170.4z"/>
		</g>
		<path class="st5" d="M342,277.7c-0.6-1.6-1.8-3.9,0.2-6.3c1.4-1.7,3.8-2,5.2-1.8c0.7-1.5,0.5-1.6,0.5-1.6s-3.1-1.1-6.3,2.8
			c-2.7,3.3-0.7,7-0.3,7.6C342,279.5,342,277.7,342,277.7z"/>
		<path class="st5" d="M323.1,231.5c-3.2-0.4-4.4,7.3-1.1,10.6c2.8,2.8,10.3,8.9,12.5,10.7c2.1,1.8,2,5.7-3.6,3.7
			c-5.9-2.1-8.9-1.7-11.7,2.9c-2.6,4.2,5.2,7.2,7.4,6.8c2.2-0.4,5.5-1.3,4.8,1c0,0,0.4-0.1,0.3-0.7c-0.1-0.6-0.1-2.6-3.5-1.5
			c-3.4,1.1-8.5-1.6-8.3-3.8c0.1-1.5,1.6-4.5,4.8-4.7c2.7-0.2,4.9,0.2,7.3,1.3c2.4,1,5,0.6,5.3-1.3c0.3-1.9-0.4-3.4-2.9-5.4
			c-2.1-1.7-9.4-8.5-11.2-9.9c-2.3-1.9-2.1-6.8-0.7-7.9c1.4-1.1,1.4-1.1,1.4-1.1L323.1,231.5z"/>
		<path class="st5" d="M327.1,266c-1.1,2.3-1.9,7.4,1,8.6c2.6,1.1,5.9-1,8.4-5.1c0.8-0.9,0.5-1.5,1.4-1.5c1.8,0,6.9-2.1,5.6-8.1
			l-0.5-1.5c0,0,0.3,1.9-0.3,3.8c-1.1,3.9-3.8,4.5-4.9,4.9c-1.1,0.4-1.5,0.2-1.8,1.5c-0.7,2.4-6.2,6.5-7.7,4.8
			c-2.3-2.6-0.9-7.3-0.3-7.6C328.6,265.4,327.1,266,327.1,266z"/>
		<path class="st5" d="M295.8,190.5c-0.3-3.7,0.7-5,2.5-5.5c1.8-0.5,3.6,0.7,4.6-0.2c1-0.8,1.4-2.8,2.8-2c0.6,0.4-1.2-1-1.2-1
			s-1.4,1.9-2.1,2.4s-1.5-0.2-2.9-0.2c-1.4,0-2.6-0.1-3.9,1.5c-1.3,1.7-0.9,4.7-0.7,5.1C295.3,191.1,295.8,190.5,295.8,190.5z"/>
		<path class="st5" d="M288.7,205.4c-0.6-2.8-0.5-7.6,3.2-7.2c2.8,0.3,7.3,1.4,11.4-1.7c3.7-2.8,8.6-1.5,6.3,4.8
			c0,0.7-0.6,0.1-0.6,0.1s2-6.4-2.8-5.1c-2.9,0.8-4.2,3.1-7.8,3.4c-3.6,0.3-6.4-1-7.7,0.5c-1.3,1.5-1.7,3.1-0.4,5.8
			C290.7,206.7,288.7,205.4,288.7,205.4z"/>
		<path class="st5" d="M285.7,249.1c-0.3-3.7,1.1-8.7,5.9-5c0.5,0.8,1.5-0.5,1.8-1.5c0.3-1,5.1-9.6,2-11.2c-3-1.5-6.7-0.5-7.2-1.9
			c-0.5-1.4,3.5-3.1,3.1-5.1c-0.4-2-1.6-1.6-1.6-1.6s1.5,1.5,0.5,2.5c-0.9,1-4,3.6-2.9,5.2c1,1.6,3.5,0.6,5.6,0.9
			c2.1,0.3,2.7,3.8,1.6,5.6c-1.1,1.8-1.7,5.5-4.3,4.2c-2.2-1.1-5.6,1.1-5.3,3.5C285.3,247.3,285.7,249.1,285.7,249.1z"/>
		<path class="st5" d="M285.5,239.7c0.5-0.8,3-4.1,4.7-4.4c1.8-0.3,1.4-0.9,0-0.7c-1.4,0.2-4.3,2.2-4.2,2.8
			C286.2,238,285.5,239.7,285.5,239.7z"/>
		<path class="st5" d="M281.8,221.8c1.5-3.3,4.2-8.3,8.8-7.1c3.3,0.9,7.4-1.3,7.9-3c0.5-1.7,0.4-2.1,0.4-2.1s0.2-0.7-0.3-0.2
			c-0.5,0.5-1,2-2.2,2.9c-1.1,0.9-3.7,2.1-6,1.6c-3.5-0.8-4.7,0.2-6.4,2c-1.7,1.8-1.9,3.4-1.9,3.4L281.8,221.8z"/>
		<path class="st5" d="M303.5,217.8c1.5,2.1,4.2,5.1,3.1,8.6c-0.9,2.7-4.9,8-4.3,11.2c0.5,3.1,3,8.8,3.9,8.7
			c-1.3,0.5-1.5,0.4-1.5,0.4s-5.1-7.3-3.6-11.2c1.4-3.9,4.5-8,4.7-11c0.2-3-3.2-4.4-3.2-4.4L303.5,217.8z"/>
		<path class="st5" d="M311.7,214.8c-2,1.7-3.6,4.2-2.2,6.5c2.4,3.9-3.1,4.7-3.3,5.3c-0.4,0.8,6.5-1.1,5-4.3
			c-0.7-1.5-2.5-3.7-0.7-5.3c1.8-1.6,3-0.9,2.9-1.8C313.3,214.3,311.7,214.8,311.7,214.8z"/>
		<path class="st5" d="M301.8,260c1.3,0.8,0.5,4.4-1.9,4.9c-2.1,0.4-3.1-1.7-3.5-1.5c-1,0.7,1.9,3,4.3,2.4c2.4-0.6,0.4-1.3,2.9-0.9
			c2.5,0.4,0.6,2.5,4.5,4.1c4.7,1.9,14.6,0.2,16.2-3.4l-1.6-0.6c0,0-0.3,1.6-3.1,2.6c-2.8,0.9-9.7,2-12.1,0.1
			c-1.6-1.2-2.3-3.1-2.8-3.4c-0.6-0.3-3.1-0.1-2.6-0.4c0.9-0.5,1.8-3.4,1-3.8C302.4,259.7,301.8,260,301.8,260z"/>
		<path class="st5" d="M312.7,248.3c1.6,1.7,0.6,4.1,2.1,5.5c1.5,1.4-0.1-1.3-0.1-2.6c-0.1-1.7,2.5-2.1,2.5-2.1L312.7,248.3z"/>
		<path class="st5" d="M286.6,214.2c1.7-2.1-0.3-3.3,0-4.3c0-0.2,1.4,1.3,1.7,2.6c0.2,0.8-0.3,1.4-0.3,1.4L286.6,214.2z"/>
		<path class="st5" d="M283.1,229.4c0,0,2.6-0.3,4.6-4.4c2-4.1,2.4-5.1,3.3-5.9c0.8-0.8,0.8-1.7-0.4-0.5c-0.7,0.7-3.4,6.3-5.9,8.1
			c-1,0.8-2.2,1-3.6-0.2C280.5,226.2,283.1,229.4,283.1,229.4z"/>
		<path class="st5" d="M325.3,214.6c-2.9-4.5-11.7-4.4-11.2-0.2c0.6,4.1,7.3,5,7.7,7.9c0.4,2.8-2.5,3.1-2.5,3.1s0.5,0,1.4-2
			c0.9-2-2.5-2.5-5.9-5.3c-3.1-2.6-4.7-4.4-1.2-7c3.5-2.6,10-0.3,11.1,0.9C325.9,213.1,325.3,214.6,325.3,214.6z"/>
		<path class="st5" d="M316.2,209.9c2.4-2.6,3.1-6.5-1.2-6.7c-4.2-0.1-7.9,0.1-4.9-4c1-2.3,0.4-1,0.4-1l0.7-0.2c0,0-2.7,3-0.1,3.5
			c2.6,0.5,6.2-0.2,7.4,1.7c1.2,1.9,1.1,6-0.2,6.9C317.1,211.1,316.2,209.9,316.2,209.9z"/>
		<path class="st5" d="M331.9,226.2c-2.7-1.9-5.7-1.3-8,1.6c-2.3,2.8-1.4,3.4-0.7,4.6c1.5,2.9,5.3,1.3,6.4,3.1
			c1.1,1.8-2.6,1.4-0.2,6.1c2.4,4.6,9.9,8.8,10.4,6.8c0.3-1.2-0.5-2.1-0.5-2.1s-5.7,1.5-8.9-5.9c-0.9-2.1,1.7-4.1,0.5-5.4
			c-1.2-1.3-5.5-1-6.8-3.7c-0.5-1,0-4.4,3.2-4.8c3.2-0.3,4.7,1.3,4.7,1.3L331.9,226.2z"/>
		<path class="st5" d="M317.8,225.4c1.4,0.5,2.3,4,1,4.7c-1.3,0.7-1.5,1.4-0.5,1.2c0.9-0.2,2.2-1.6,2.2-2.9c0-1.3-1.1-2-0.5-2.4
			c0.6-0.4,1.5-0.7,2.3-0.1c1.3,1,1.3,0.7,0.7,0c-0.9-1-2.1-1.2-2.4-1.1c-0.3,0-2.3-0.1-2.7-0.1
			C317.5,224.7,317.8,225.4,317.8,225.4z"/>
	</g>
	<g class="st24">
		<g>
			<g>
				<path class="st5" d="M763.7,362.8c-20.6-5.2-40.9,5-45.5,22.8c-1.5,5.9-1.1,11.8,0.9,17.3c2.5,9.8,6.5,32.1,5.4,46.7l12,3
					c4.9,1.2,8.8,2.2,8.8,2.2l11.3,2.9c7.2-16,27.9-37.7,30.4-41.6l-0.1,0c2.8-3.3,4.9-7.2,6-11.6
					C797.3,386.8,784.3,368.1,763.7,362.8z M782.7,402.9c-0.8,3.2-2.3,6.1-4.4,8.5l0.1,0c-1.9,2.8-17,18.7-22.3,30.4l-8.3-2.1
					c0,0-2.9-0.7-6.4-1.6l-8.8-2.2c0.8-10.7-2.1-27-3.9-34.2c-1.4-4-1.7-8.4-0.6-12.7c3.3-13.1,18.2-20.5,33.3-16.7
					C776.4,376.1,786,389.8,782.7,402.9z"/>
			</g>
		</g>
		<path class="st5" d="M724.3,452.9c0,0-3.6,14.3-4,15.9c-0.4,1.5,6.7,12.7,8.3,14.8c0.1,0.3,0.2,0.6,0.2,0.6c0.5,0.4,2.2,1,4,1.5
			c1.8,0.5,3.6,0.8,4.2,0.6c0.1,0,0.3-0.2,0.5-0.4c2.4-1.1,13.9-7.5,14.3-9.1c0.4-1.6,4.1-15.9,4.1-15.9L724.3,452.9z M748,474.9
			c-0.1,0.4-0.5,0.6-0.8,0.5l-22-5.6c-0.3-0.1-0.5-0.5-0.4-0.8l0.1-0.5c0.1-0.4,0.4-0.6,0.8-0.5l22,5.6c0.3,0.1,0.6,0.5,0.5,0.8
			L748,474.9z M749.2,470.1c-0.1,0.4-0.5,0.6-0.8,0.5l-22-5.6c-0.3-0.1-0.5-0.5-0.4-0.8l0.1-0.5c0.1-0.4,0.4-0.6,0.8-0.5l22,5.6
			c0.3,0.1,0.6,0.5,0.5,0.8L749.2,470.1z M750.4,465.3c-0.1,0.4-0.5,0.6-0.8,0.5l-22-5.6c-0.3-0.1-0.5-0.5-0.4-0.8l0.1-0.5
			c0.1-0.4,0.4-0.6,0.8-0.5l22,5.6c0.3,0.1,0.6,0.5,0.5,0.8L750.4,465.3z"/>
	</g>
</g>
</svg>
